<?xml version="1.0" encoding="UTF-8" standalone="no"?>
<!-- Created with Inkscape (http://www.inkscape.org/) -->

<svg
   width="240mm"
   height="240mm"
   viewBox="0 0 240 240"
   version="1.1"
   id="svg8"
   inkscape:version="1.1.1 (3bf5ae0d25, 2021-09-20)"
   sodipodi:docname="close_focus_hover.svg"
   xmlns:inkscape="http://www.inkscape.org/namespaces/inkscape"
   xmlns:sodipodi="http://sodipodi.sourceforge.net/DTD/sodipodi-0.dtd"
   xmlns="http://www.w3.org/2000/svg"
   xmlns:svg="http://www.w3.org/2000/svg"
   xmlns:rdf="http://www.w3.org/1999/02/22-rdf-syntax-ns#"
   xmlns:cc="http://creativecommons.org/ns#"
   xmlns:dc="http://purl.org/dc/elements/1.1/">
  <defs
     id="defs2" />
  <sodipodi:namedview
     id="base"
     pagecolor="#ffffff"
     bordercolor="#666666"
     borderopacity="1.0"
     inkscape:pageopacity="0.0"
     inkscape:pageshadow="2"
     inkscape:zoom="0.49497475"
     inkscape:cx="526.28947"
     inkscape:cy="454.56864"
     inkscape:document-units="mm"
     inkscape:current-layer="layer1"
     showgrid="false"
     inkscape:pagecheckerboard="true"
     inkscape:window-width="2048"
     inkscape:window-height="1064"
     inkscape:window-x="892"
     inkscape:window-y="576"
     inkscape:window-maximized="0" />
  <metadata
     id="metadata5">
    <rdf:RDF>
      <cc:Work
         rdf:about="">
        <dc:format>image/svg+xml</dc:format>
        <dc:type
           rdf:resource="http://purl.org/dc/dcmitype/StillImage" />
        <dc:title />
      </cc:Work>
    </rdf:RDF>
  </metadata>
  <g
     inkscape:label="Layer 1"
     inkscape:groupmode="layer"
     id="layer1"
     transform="translate(0,-57)">
    <circle
       style="opacity:1;fill:#f48fb1;fill-opacity:1;stroke:#baffff;stroke-width:0;stroke-miterlimit:4;stroke-dasharray:none;stroke-opacity:1"
       id="path815"
       cx="120"
       cy="177"
       r="100" />
    <path
       id="path55"
       style="fill:#000000;stroke-width:0.264583"
       d="m 0.77101236,33.026787 c -0.5407877,0.0013 -1.08072196,0.02197 -1.6190226,0.0615 C -15.202694,34.142369 -28.291729,48.604358 -19.750215,67.037113 -15.38591,75.885069 -8.9000837,83.419228 -2.5647013,90.891471 7.5250256,102.68516 19.185569,112.95424 30.804837,123.18872 c 6.842841,5.88719 13.185549,12.30391 19.19728,19.02727 4.949983,5.83962 9.780984,11.77941 14.507641,17.80098 2.97924,3.96742 5.969722,7.9237 9.002032,11.84837 -8.755438,12.37613 -17.521782,24.7597 -26.90895,36.66649 -6.741094,8.55049 -12.38219,15.11461 -19.75435,23.03271 -3.066508,3.29359 -6.257437,6.46908 -9.38599,9.7038 -11.0874205,11.22326 -22.3791367,22.28918 -32.530831,34.38601 -19.990344,25.63122 16.2575713,53.90185 36.247916,28.27063 9.156457,-10.58549 19.154826,-20.39924 28.985311,-30.35009 3.241037,-3.34977 6.545728,-6.63909 9.723438,-10.049 8.341812,-8.95137 14.525585,-16.08686 22.187275,-25.75605 7.915066,-9.98895 15.384584,-20.31675 22.782591,-30.69425 4.04705,4.01596 8.20118,7.92417 12.5398,11.62255 1.7086,1.45646 3.46192,2.85942 5.19297,4.28914 9.41075,7.3892 19.4287,13.95116 29.31604,20.67419 4.74116,3.11892 9.12926,6.70644 13.56816,10.22728 4.9044,3.66136 9.84192,7.27484 14.69316,11.00812 2.62738,2.13819 5.31463,4.22864 7.78505,6.55205 0.78479,0.73809 1.49072,1.55596 2.23242,2.33733 2.20243,2.37877 4.27195,4.86597 6.25854,7.42487 2.03504,2.59601 4.11234,5.15777 6.21926,7.69565 2.83933,3.30777 5.85885,6.45477 8.89661,9.57926 22.66302,23.30153 55.61657,-8.74924 32.95354,-32.05075 -2.21166,-2.27303 -4.41216,-4.55886 -6.51588,-6.93291 -1.78281,-2.13464 -3.52487,-4.3024 -5.24671,-6.48643 -2.96368,-3.81536 -6.07383,-7.50998 -9.37772,-11.03757 -2.0518,-2.12856 -2.70825,-2.86192 -4.963,-4.96042 -3.25095,-3.02567 -6.75873,-5.77263 -10.21333,-8.55658 -4.67826,-3.59767 -9.41693,-7.11227 -14.17433,-10.60297 -5.31891,-4.20885 -10.60038,-8.46752 -16.26826,-12.21063 -8.72973,-5.93565 -17.57319,-11.72771 -25.95345,-18.15548 -7.16255,-5.86695 -14.01218,-12.09999 -20.31039,-18.89704 1.98322,-2.97618 3.96442,-5.9538 5.96088,-8.9209 3.31592,-4.92806 6.39872,-9.62814 10.12393,-14.23376 1.29905,-1.60607 2.73863,-3.09325 4.10776,-4.64002 6.60009,-6.48036 13.56412,-12.62258 21.02042,-18.10639 4.20035,-3.08919 7.61131,-5.26612 11.96051,-8.14162 7.91787,-4.86609 15.76103,-10.06864 24.37939,-13.64 0.63288,-0.20287 1.25638,-0.43768 1.89859,-0.60874 0.65708,-0.17502 1.329,-0.28734 1.99419,-0.428401 4.90309,-1.039722 9.84343,-1.795232 14.79238,-2.580722 32.1031,-5.095552 24.89733,-50.496397 -7.20576,-45.400845 -10.02036,1.590541 -20.19127,2.987408 -29.66589,6.800101 -1.47111,0.64561 -2.95839,1.255223 -4.41317,1.936833 -9.46979,4.436907 -18.33659,10.074451 -27.18335,15.6099 -5.74185,3.8165 -9.12886,5.963508 -14.72468,10.125479 -9.83998,7.318621 -19.06358,15.484215 -27.57455,24.308595 -2.07178,2.4191 -4.2288,4.76769 -6.21512,7.25744 -3.63461,4.5558 -6.73935,9.12987 -9.93893,13.88339 -0.0472,-0.0624 -0.0944,-0.12466 -0.14159,-0.18707 C 95.320738,124.82297 89.862291,118.10421 84.23155,111.53259 76.997543,103.4789 69.392778,95.767541 61.187996,88.691606 51.220348,79.913543 41.143832,71.178833 32.444531,61.100525 28.772172,56.804727 24.964092,52.477479 21.958349,47.710128 17.153749,37.341703 8.8828278,33.007 0.77101236,33.026787 Z" />
  </g>
</svg>
