<?xml version="1.0" encoding="UTF-8" standalone="no"?>
<!-- Created with Inkscape (http://www.inkscape.org/) -->

<svg
   width="240mm"
   height="240mm"
   viewBox="0 0 240 240"
   version="1.1"
   id="svg8"
   inkscape:version="1.1.1 (3bf5ae0d25, 2021-09-20)"
   sodipodi:docname="close_focus.svg"
   xmlns:inkscape="http://www.inkscape.org/namespaces/inkscape"
   xmlns:sodipodi="http://sodipodi.sourceforge.net/DTD/sodipodi-0.dtd"
   xmlns="http://www.w3.org/2000/svg"
   xmlns:svg="http://www.w3.org/2000/svg"
   xmlns:rdf="http://www.w3.org/1999/02/22-rdf-syntax-ns#"
   xmlns:cc="http://creativecommons.org/ns#"
   xmlns:dc="http://purl.org/dc/elements/1.1/">
  <defs
     id="defs2" />
  <sodipodi:namedview
     id="base"
     pagecolor="#ffffff"
     bordercolor="#666666"
     borderopacity="1.0"
     inkscape:pageopacity="0.0"
     inkscape:pageshadow="2"
     inkscape:zoom="0.35"
     inkscape:cx="80"
     inkscape:cy="547.14286"
     inkscape:document-units="mm"
     inkscape:current-layer="layer1"
     showgrid="false"
     inkscape:pagecheckerboard="true"
     inkscape:window-width="2145"
     inkscape:window-height="1053"
     inkscape:window-x="848"
     inkscape:window-y="560"
     inkscape:window-maximized="0" />
  <metadata
     id="metadata5">
    <rdf:RDF>
      <cc:Work
         rdf:about="">
        <dc:format>image/svg+xml</dc:format>
        <dc:type
           rdf:resource="http://purl.org/dc/dcmitype/StillImage" />
        <dc:title />
      </cc:Work>
    </rdf:RDF>
  </metadata>
  <g
     inkscape:label="Layer 1"
     inkscape:groupmode="layer"
     id="layer1"
     transform="translate(0,-57)">
    <circle
       style="opacity:1;fill:#ff5f57;fill-opacity:1;stroke:#baffff;stroke-width:0;stroke-miterlimit:4;stroke-dasharray:none;stroke-opacity:1"
       id="path815"
       cx="120"
       cy="177"
       r="100" />
    <path
       id="path196"
       style="fill:#000000;stroke-width:0.264583"
       d="m 56.556753,105.27819 -6.783565,3.94498 c 10.313755,14.95493 22.192343,28.74415 34.0434,42.48268 14.5551,17.14493 30.151072,33.3532 45.433402,49.83985 8.03876,8.71906 15.54248,17.90211 23.22287,26.93117 3.29283,3.90906 6.77464,7.64459 10.44949,11.19467 2.53598,2.24125 5.2069,4.32122 7.81917,6.47247 2.45573,2.02923 4.8701,4.10708 7.30963,6.15569 l 6.66212,-4.16356 c -2.4467,-2.04552 -4.86093,-4.12846 -7.3272,-6.15054 -2.58812,-2.14762 -5.20525,-4.25647 -7.75715,-6.44663 -3.71674,-3.48565 -7.25507,-7.14889 -10.54768,-11.0417 -7.76121,-8.99543 -15.40149,-18.09943 -23.48849,-26.80819 C 120.20098,181.29401 104.46929,165.199 89.941796,148.01667 78.229163,134.25849 66.392631,120.47626 56.556753,105.27819 Z" />
    <path
       id="path202"
       style="fill:#000000;stroke-width:0.264583"
       d="m 193.96439,121.209 -7.29207,2.98535 c -1.81175,1.66034 -3.65224,3.29008 -5.5764,4.82037 -4.28199,3.35564 -8.75774,6.43622 -13.35836,9.34 -5.12924,3.36405 -10.12125,6.90563 -14.93965,10.70581 -7.04096,5.47092 -13.491,11.66092 -20.58117,17.07699 -4.91346,3.82358 -5.96262,4.69995 -11.17969,8.49251 -10.2806,7.4735 -20.94695,14.39918 -31.222379,21.88083 -9.679762,6.9015 -19.398024,13.75261 -28.981174,20.7884 -5.66569,4.15964 -8.770186,6.35442 -13.8312,10.75541 -1.095306,0.95247 -2.106345,1.99783 -3.159495,2.99672 l 7.266223,-3.00705 c 1.006255,-0.97456 1.965399,-2.0001 3.018935,-2.92334 4.705694,-4.1237 8.332833,-6.70696 13.53561,-10.53527 9.545669,-7.02391 19.230366,-13.85511 28.88144,-20.73259 10.34546,-7.50558 21.08849,-14.44366 31.42547,-21.96041 5.22737,-3.8012 6.34106,-4.72811 11.27011,-8.5633 7.14557,-5.44058 13.61032,-11.70988 20.75688,-17.14159 4.82116,-3.81879 9.858,-7.3137 15.00735,-10.66912 4.61639,-2.89848 9.07837,-6.01747 13.3444,-9.40924 1.93623,-1.55871 3.79102,-3.2134 5.61517,-4.90048 z" />
    <circle
       id="path205"
       style="fill:#000000;stroke:#000000;stroke-width:0.264583"
       cx="-158.1237"
       cy="193.99109"
       r="0.20060565" />
    <circle
       id="path207"
       style="fill:#000000;stroke:#000000;stroke-width:0.264583"
       cx="-158.1237"
       cy="193.99109"
       r="0.20060565" />
    <circle
       id="path221"
       style="fill:#000000;stroke:#000000;stroke-width:0.264583"
       cx="388.61209"
       cy="209.40128"
       r="0.20060565" />
    <circle
       id="path223"
       style="fill:#000000;stroke:#000000;stroke-width:0.264583"
       cx="388.61209"
       cy="209.40128"
       r="0.20060565" />
    <path
       id="path59"
       style="fill:#000000;stroke-width:0.264583"
       d="m 62.009652,95.785747 c -3.27297,-0.195998 -24.35093,9.488273 -23.628017,11.081493 2.614031,9.90803 10.034953,17.44645 16.881142,24.67705 6.773045,6.8693 14.865453,12.05969 23.14639,16.88372 5.044752,2.7383 9.501245,6.39485 13.708208,10.26759 0.53599,0.52543 1.116226,1.00925 1.608169,1.57613 0.460663,0.53085 2.953313,4.05265 3.202389,4.39818 1.802749,2.50093 3.539717,5.01258 5.467887,7.41919 0.1616,0.18603 2.91856,3.3516 3.1104,3.60546 -0.53634,0.48338 -1.07325,0.97982 -1.61799,1.51102 -2.55975,2.49617 -4.655953,5.08702 -8.074957,6.47971 -8.807508,3.99856 -17.992683,7.05101 -26.696561,11.313 -2.679909,1.31226 -5.292794,2.75785 -7.939051,4.1367 -9.023014,5.58307 -5.684406,3.25789 -13.707692,9.15913 -5.028186,3.69831 -10.327198,7.39206 -13.893725,12.62145 -1.226574,1.41083 18.725178,18.75706 19.951755,17.34623 9.394478,-4.23783 18.94078,-8.11438 28.409635,-12.17962 9.225986,-4.21681 18.348866,-8.73801 26.462986,-14.89159 2.87627,-2.18131 4.87555,-4.11137 7.49566,-6.51175 2.17401,-1.87953 3.93077,-4.2054 5.95055,-6.24768 4.09847,4.90745 9.07583,8.93756 14.27509,12.6137 1.02285,0.6314 2.11175,1.35688 3.21479,1.87069 0.57567,0.26815 0.15094,-0.27108 0.72916,0.40772 0.40357,0.47377 0.93604,1.28481 1.29087,1.80713 2.35463,4.31324 4.83408,8.56786 7.76645,12.51448 0.95389,1.25768 2.04021,2.39771 3.25872,3.39772 0.0889,0.073 0.22899,0.0888 0.29042,0.18604 0.27626,0.43738 0.42302,0.94489 0.65629,1.40663 1.60898,5.02366 4.32349,9.14452 7.81761,13.04417 1.53934,1.47958 3.11515,2.9848 4.9227,4.14341 0.11652,0.0747 0.27396,0.059 0.39533,0.12558 0.18814,0.10315 0.71852,0.70212 0.77566,0.76274 0.4927,0.49933 0.88623,1.08868 1.37563,1.5906 0.084,0.0861 0.2275,0.10512 0.29869,0.20206 0.29301,0.39898 0.50314,0.8535 0.77824,1.26504 0.86685,1.29674 1.11033,1.52827 2.10685,2.73368 0.36833,0.37967 0.73703,0.75928 1.10536,1.13895 1.08502,1.51524 22.51369,-13.82904 21.42866,-15.34428 l -0.65422,-0.78859 c -0.69486,-0.74434 -1.88533,-1.74008 -2.46962,-2.47323 -0.8525,-1.06971 -1.47387,-2.33806 -2.5063,-3.2768 -1.74157,-2.02583 -3.54578,-3.99765 -5.35988,-5.95881 -1.0705,-1.13852 -2.13692,-2.32405 -3.25665,-3.4122 -0.2827,-0.27472 -0.63449,-0.47419 -0.90744,-0.75861 -0.25197,-0.26256 -0.99443,-1.46979 -1.14256,-1.70274 -2.37803,-5.87342 0.73911,1.65338 -1.29347,-2.81636 -1.09923,-2.41729 -1.84583,-5.01771 -3.47317,-7.17217 -2.64097,-3.97489 -5.71174,-7.63036 -8.36745,-11.59413 -2.6095,-3.89519 -5.52497,-7.64203 -9.04699,-10.75955 -3.64728,-2.91697 -7.51014,-5.60692 -10.85618,-8.87181 2.50718,-1.54093 5.02209,-3.06964 7.54889,-4.57905 6.72678,-4.17833 13.56937,-8.19347 19.71766,-13.2209 1.2166,-0.99481 2.3488,-2.08842 3.5233,-3.13262 4.82573,-4.00992 8.2643,-9.2113 11.79463,-14.30765 0.78528,-1.65899 2.10047,-2.69164 3.43855,-3.86178 2.95847,-2.23239 5.68093,-4.73497 8.21862,-7.43159 0.97857,-0.77472 1.63011,-1.86121 2.52129,-2.71715 0.67632,-0.64957 1.50765,-1.1165 2.23242,-1.71152 1.06582,-0.87502 1.43496,-1.26306 2.42259,-2.2071 0.54115,-0.53716 0.8113,-0.83351 0.98392,-1.0356 -0.0198,0.0826 -3.5e-4,0.15531 0.14986,0.16175 1.41704,-1.06048 -13.06745,-20.50774 -15.30397,-20.7269 -0.0721,-0.007 -0.13154,0.006 -0.17725,0.0403 -1.94415,1.13347 -3.6884,2.54594 -5.56814,3.78116 -3.14417,2.36641 -5.87307,5.17572 -8.67905,7.92355 -2.35019,2.24284 -4.53493,4.63328 -6.68177,7.0683 -2.11065,1.94584 -3.9927,4.10055 -6.07353,6.07612 -3.29929,3.38643 -7.09829,6.21002 -10.72337,9.23199 -1.54168,1.10981 -3.77233,2.76658 -5.39244,3.7145 -1.11137,0.65027 -2.28986,1.17884 -3.42512,1.78646 -4.47117,2.3931 -8.8673,4.9275 -13.09325,7.73544 -1.75462,1.15045 -3.48865,2.32947 -5.2095,3.52692 -0.17715,-0.30446 -0.33015,-0.6251 -0.53589,-0.91054 -3.59104,-5.49092 -7.7974,-10.53635 -11.61117,-15.87035 -0.85912,-1.02127 -1.6769,-2.07866 -2.57711,-3.06389 -4.63119,-5.06857 -10.09162,-9.39708 -16.073436,-12.75323 -0.819248,-0.43773 -1.661205,-0.83579 -2.457731,-1.31362 -5.444257,-3.26597 -9.842637,-7.99374 -14.397571,-12.33051 -5.848128,-5.41016 -11.391011,-11.12954 -17.155541,-16.622758 -0.04819,-0.106215 -0.187463,-0.16315 -0.405659,-0.176215 z" />
    <path
       style="fill:#000000;stroke-width:0.264583"
       id="path82"
       d="m 25.844388,294.91561 c 1.079347,-0.78236 2.219381,-1.48719 3.238045,-2.34708 2.47508,-2.08929 5.597848,-5.40637 7.833022,-7.72384 2.616679,-2.71301 6.466871,-6.67741 8.852312,-9.48813 1.621867,-1.91101 3.119041,-3.92444 4.678564,-5.88667 1.600957,-2.06333 3.260886,-4.08223 4.80287,-6.19 8.388469,-11.46637 0.96307,-2.13599 8.997804,-12.64531 4.119444,-5.38817 8.702786,-10.34474 13.147606,-15.45916 3.810487,-4.78634 2.29865,-3.15949 6.243908,-7.16454 0.813181,-0.82551 1.556975,-1.73068 2.462493,-2.4537 1.748334,-1.39597 4.544075,-2.66097 6.451756,-3.71041 1.402423,-0.77151 2.780818,-1.5859 4.171227,-2.37885 6.558045,-3.47112 12.599375,-7.8014 18.583445,-12.1606 1.23318,-0.89833 2.42052,-1.8626 3.69561,-2.70038 1.22253,-0.80325 2.52506,-1.47758 3.7876,-2.21637 4.46899,-3.26557 9.48669,-5.96625 12.935,-10.41709 1.14635,-1.47962 2.0466,-3.13473 3.09864,-4.68281 0.79848,-0.85085 1.50783,-1.79514 2.39544,-2.55255 0.30115,-0.25698 0.74952,-0.261 1.10527,-0.43472 8.94525,-4.36802 -4.39592,1.78208 4.74899,-2.065 3.02006,-1.27047 4.53101,-2.34132 7.49756,-4.10644 7.63077,-4.06721 2.84572,-1.26052 10.48679,-6.45999 5.42642,-3.69249 6.23736,-3.88958 11.27845,-8.12248 4.42199,-3.71305 4.79228,-4.40153 8.53182,-8.55516 3.98696,-4.11363 6.65449,-9.21036 10.06281,-13.75561 1.48707,-1.98311 1.66256,-2.08227 3.30941,-3.85768 1.83448,-2.01883 4.11257,-3.53061 6.17766,-5.27814 2.42652,-2.05338 4.65508,-4.34874 6.80612,-6.68137 2.44598,-3.40005 5.60704,-6.24084 8.09162,-9.60433 1.37903,-1.86686 2.63562,-3.82164 3.99725,-5.70122 2.19131,-2.73328 4.50436,-5.36612 6.78081,-8.02851 1.11271,-1.30136 2.30576,-2.537023 3.34958,-3.894264 1.95251,-2.538793 4.31494,-6.412976 6.02229,-9.113549 2.26769,-4.134289 4.50018,-8.316001 5.21693,-13.038621 0.14023,-0.923959 0.19894,-1.872474 0.10052,-2.801818 -0.046,-0.434731 -0.13387,-1.398291 -0.5245,-1.202033 -0.97419,0.48945 -1.39345,1.677127 -2.09018,2.51569 -11.71213,1.801377 -23.87161,1.726689 -35.1364,5.404131 -2.36594,0.772375 3.84457,3.592693 6.29812,4.010261 6.41402,1.091597 13.04148,1.034714 19.51498,0.382844 2.15091,-0.21659 3.88831,-1.894146 5.78546,-2.930551 2.5647,-1.401087 3.34703,-2.110361 5.5967,-3.808071 2.75372,-2.485815 1.46172,-1.217328 3.89034,-3.790768 2.16399,-2.698084 -35.99269,-33.301522 -38.15668,-30.603437 v 0 c -0.4468,0.231259 -0.25479,0.146373 -0.56683,0.274506 7.21369,-5.255776 13.56837,-4.172978 23.51075,-2.300136 2.11293,0.398011 7.29451,3.191115 5.22663,3.779962 -11.60551,3.30477 -23.90765,3.295718 -35.86148,4.943578 -0.88918,1.087269 -1.6711,2.27191 -2.66754,3.261808 -0.47503,0.471913 -1.14315,0.698556 -1.69732,1.074391 -0.67273,0.456246 -1.36769,0.88838 -1.98188,1.420826 -3.08164,2.67147 -4.98453,6.255749 -6.9733,9.749969 -0.722,1.418694 -3.14531,6.120467 -3.84485,7.713933 -0.48876,1.113329 -0.83334,2.28617 -1.31935,3.400702 -1.09533,2.511829 -2.52973,4.868571 -3.99392,7.176711 -2.76582,3.395753 0.0478,0.183428 -2.22155,2.279751 -2.54257,2.348722 -4.62247,5.180978 -7.4387,7.237417 -2.47662,2.241328 -4.91349,4.565044 -7.07424,7.121598 -1.90585,2.25495 -3.55177,4.7427 -5.63467,6.85445 -1.65865,1.71783 -3.36531,3.51915 -5.45695,4.73053 -0.65584,0.37983 -1.39103,0.60253 -2.07926,0.91992 -3.5139,1.62046 -2.96934,1.41092 -6.77852,3.45965 -4.72312,2.70955 -5.75541,3.1131 -10.30171,6.58252 -4.97695,3.79806 -5.69594,4.83765 -10.18822,9.11341 -1.41494,1.34674 -2.90907,2.61183 -4.27531,4.00796 -1.34275,1.37214 -2.56265,2.85934 -3.84397,4.28901 -2.00582,2.17339 -4.10581,4.26225 -6.03496,6.50397 -2.07741,2.41401 -3.63623,5.15671 -5.73473,7.53863 -0.0859,0.0975 0.10365,-0.23844 0.15548,-0.35766 -0.85983,-0.11629 -1.96993,-0.30673 -2.79473,-0.15849 -5.17925,0.93081 -9.773419,5.01008 -14.46591,7.14289 -8.000849,5.53401 -16.282231,10.63611 -24.573765,15.72158 -5.005376,2.98617 -9.826958,6.1861 -14.710674,9.36416 -1.918695,1.24859 -3.918921,2.37396 -5.791986,3.69 -3.944284,2.77133 -8.649186,6.77079 -12.340748,9.81054 -2.01108,2.08026 -4.114083,4.07541 -6.033237,6.24076 -1.989408,2.24462 -3.826694,4.62039 -5.681848,6.97718 -6.7220109,8.53964 -12.9739626,17.46125 -18.9105008,26.55971 -4.0967125,6.49025 -4.2181766,6.35099 -7.6823072,13.14364 -2.659439,5.21477 -5.658576,10.7247 -5.597608,16.73667 -1.816719,2.93751 39.725933,28.62979 41.542652,25.69228 z" />
    <path
       style="fill:#000000;stroke-width:0.264583"
       id="path84"
       d="m -18.608898,71.780257 c 0.646634,3.943573 1.415764,9.39147 2.650546,13.050605 3.533989,10.47256 9.5779903,20.212428 16.5374775,28.727008 2.3783282,2.90976 5.0634548,5.55464 7.5951823,8.33197 8.8916532,9.18702 20.3670212,14.91829 30.6946632,22.20588 2.321788,1.58222 4.608547,3.30208 6.49582,5.40262 0.495665,0.55167 0.908891,1.17219 1.361673,1.75957 2.945543,3.82119 0.992589,1.33557 4.376462,5.57664 2.817696,3.44501 6.226077,6.32441 9.327576,9.49398 0.21282,0.21749 6.911348,7.42991 7.189377,7.70559 1.290992,1.28009 2.673631,2.46433 4.010446,3.69649 4.723812,4.50073 10.106541,8.16772 15.829523,11.2686 8.905335,4.82516 -2.69612,-1.88912 5.202523,2.74365 4.311801,3.4142 8.328219,7.22774 12.279429,11.0547 0.75758,0.78101 1.54644,1.53284 2.27272,2.34304 3.57156,3.98421 2.90334,3.8895 6.92622,7.29673 3.65954,3.09948 7.71625,5.66437 11.81631,8.12121 4.342,2.55129 8.73496,5.12967 13.40356,7.05512 2.10244,0.6846 1.13287,0.3184 2.92039,1.06717 0.75687,0.34478 0.50489,0.16779 1.33716,1.28067 2.47921,3.31513 1.88364,3.21533 5.22408,6.53235 1.00317,0.99615 5.643,4.76377 6.82797,5.73635 2.94454,2.58822 6.31965,4.5896 9.50382,6.84693 0.94025,0.66656 1.82507,1.40921 2.76676,2.07373 1.71883,1.21289 2.71894,1.76724 4.46639,2.80617 0.52883,0.30384 1.13007,0.50694 1.58648,0.91149 0.34893,0.3093 0.49189,0.79312 0.76388,1.17185 0.82311,1.14612 1.64025,2.30052 2.55242,3.37711 1.03014,1.21582 2.18111,2.32395 3.25949,3.49721 0.58408,0.5469 1.16816,1.09381 1.75224,1.64071 0.5982,0.61593 1.17632,1.25201 1.79461,1.84777 0.96237,0.92732 1.1059,0.63975 1.5878,1.86551 0.0994,0.25279 0.0848,0.53695 0.14432,0.80197 0.10646,0.47417 0.23554,0.94298 0.3533,1.41448 0.79269,1.95368 1.90607,3.74681 3.08405,5.48642 0.66206,0.97772 1.40517,2.20989 1.83552,1.96907 0.31172,-0.17444 0.20368,-0.68477 0.30552,-1.02715 1.58855,-10.73575 -1.87225,-7.54881 6.76034,-20.3203 1.22194,-1.8078 3.79358,-2.34307 5.12653,-4.07065 1.07678,-1.39557 -3.36223,1.56311 -4.32902,3.03702 -3.19172,4.86592 -5.25403,10.38519 -7.88105,15.57778 0.96958,14.75757 -0.21572,4.37151 1.21025,11.39332 0.10893,0.53641 0.0889,1.09676 0.22792,1.62618 0.40474,1.54156 1.3926,4.38738 2.14617,5.9026 0.44291,0.89057 0.99778,1.72091 1.49667,2.58137 0.48192,0.57802 0.91736,1.19822 1.44576,1.73408 0.34422,0.34907 0.77207,0.60436 1.15811,0.90654 0.4102,0.38154 0.84783,0.73555 1.2306,1.14461 3.75361,4.01138 -0.53135,-0.0548 4.3124,4.82861 0.62736,0.6325 1.32116,1.19546 1.98175,1.79319 0.15142,0.1275 0.32366,0.23376 0.45428,0.3825 0.10266,0.11692 -0.46247,-0.41014 -0.3692,-0.28561 1.46313,1.95355 3.57347,3.45841 5.37094,5.08034 2.34926,2.05406 5.12699,3.46532 7.84353,4.95037 2.95551,2.07084 32.24161,-39.72641 29.28609,-41.79725 v 0 c -1.8234,-0.56091 -3.57661,-1.34281 -5.47215,-1.63144 -0.66901,-0.22829 -1.32302,-0.50649 -2.00703,-0.68487 -0.44189,-0.11525 -2.17472,0.0588 -2.34883,-0.03 -4.154,-2.11801 -0.19619,-0.55194 -1.86305,-1.19385 1.86086,2.00618 0.88389,0.90773 3.10199,3.56436 0.32769,0.39248 0.5748,0.8686 0.98091,1.17923 0.0903,0.0691 0.22316,-0.14787 0.21896,-0.26147 -0.0157,-0.42529 -0.14584,-0.84124 -0.2747,-1.24685 -0.13383,-0.42126 -0.34017,-0.81594 -0.51026,-1.22391 -0.32836,-0.42421 -1.23171,-1.66811 -1.68707,-1.90946 -0.17811,-0.0944 -0.40444,0.2498 -0.58379,0.15778 -0.36133,-0.1854 -0.43003,-0.87555 -0.83601,-0.88628 -0.28857,-0.008 -0.0558,0.57465 -0.0837,0.86197 0.052,2.47394 0.10409,4.94788 0.15613,7.42182 -2.59604,4.91471 -4.70139,10.1218 -7.78811,14.74413 -0.88604,1.32683 -5.10662,3.8173 -3.90557,2.76704 1.74766,-1.52824 4.2144,-2.3081 5.55128,-4.20614 6.91626,-9.81934 7.03828,-12.51662 6.97486,-22.56 -0.23556,-2.46932 -0.2704,-3.80024 -0.82976,-6.17299 -1.02538,-4.3496 -2.99285,-8.45259 -5.37859,-12.20454 -0.8313,-1.10121 -1.63714,-2.22211 -2.49391,-3.30362 -2.16671,-2.73506 -4.86239,-5.07774 -6.25877,-8.3446 -1.63796,-2.55784 -3.05083,-4.75951 -5.07032,-7.07841 -1.47519,-1.6939 -3.22417,-3.13779 -4.68026,-4.84813 -0.5641,-0.6626 -0.97101,-1.44433 -1.45652,-2.16649 -1.44424,-2.02983 -2.18542,-3.16296 -3.84499,-5.09246 -0.81865,-0.9518 -1.70663,-1.84174 -2.55401,-2.76806 -3.15535,-3.44931 -6.29738,-6.92217 -10.06402,-9.73581 -1.99819,-1.56127 -5.43916,-4.37848 -7.71639,-5.6874 -0.50692,-0.29137 -6.36647,-2.85256 -6.98986,-3.21409 -1.28836,-0.74718 -4.87321,-3.61585 -5.9755,-4.47683 -3.9096,-2.89835 -7.80002,-5.81565 -11.39084,-9.11072 -4.09006,-3.65128 -8.86585,-7.81694 -13.70858,-10.39008 -1.09627,-0.58249 -2.35473,-0.82462 -3.4394,-1.42844 -1.05737,-0.58863 -1.96246,-1.41662 -2.94368,-2.12493 -5.04192,-3.5664 -9.36839,-7.96713 -13.9916,-12.04184 -6.73579,-6.66252 3.00603,3.06741 -4.24262,-4.51769 -3.78174,-3.95727 -7.87399,-7.57769 -12.37957,-10.69767 -6.30225,-4.84784 -0.49905,-0.43881 -6.93722,-5.17024 -0.90895,-0.66799 -1.87371,-1.27084 -2.7051,-2.03318 -3.08763,-2.83116 -5.27945,-6.69322 -8.514913,-9.39794 -3.632416,-3.31936 -7.289749,-6.58159 -11.184707,-9.59511 -0.490921,-0.37983 -3.964598,-2.85365 -4.729136,-3.51252 -0.660961,-0.5696 -1.254421,-1.21313 -1.881634,-1.8197 -0.540216,-0.56923 -1.133079,-1.09276 -1.62065,-1.70768 -2.084073,-2.6284 -3.229258,-5.96675 -4.637757,-8.949969 C 67.710099,91.887794 68.27294,93.256364 64.026187,86.051358 62.195765,83.425154 60.454169,80.734752 58.534918,78.172747 53.711567,71.734061 50.214421,67.646654 44.454167,62.023948 40.22635,57.897087 35.441842,53.727295 30.40684,50.560714 c -1.365041,-0.858495 -2.909105,-1.39231 -4.363658,-2.088465 -1.648125,-3.157378 -46.300205,20.15063 -44.65208,23.308008 z" />
  </g>
</svg>
