<?xml version="1.0" encoding="UTF-8" standalone="no"?>
<!-- Created with Inkscape (http://www.inkscape.org/) -->

<svg
   width="240mm"
   height="240mm"
   viewBox="0 0 240 240"
   version="1.1"
   id="svg8"
   inkscape:version="1.1.1 (3bf5ae0d25, 2021-09-20)"
   sodipodi:docname="maximized_focus_hover.svg"
   xmlns:inkscape="http://www.inkscape.org/namespaces/inkscape"
   xmlns:sodipodi="http://sodipodi.sourceforge.net/DTD/sodipodi-0.dtd"
   xmlns="http://www.w3.org/2000/svg"
   xmlns:svg="http://www.w3.org/2000/svg"
   xmlns:rdf="http://www.w3.org/1999/02/22-rdf-syntax-ns#"
   xmlns:cc="http://creativecommons.org/ns#"
   xmlns:dc="http://purl.org/dc/elements/1.1/">
  <defs
     id="defs2" />
  <sodipodi:namedview
     id="base"
     pagecolor="#ffffff"
     bordercolor="#666666"
     borderopacity="1.0"
     inkscape:pageopacity="0.0"
     inkscape:pageshadow="2"
     inkscape:zoom="0.35"
     inkscape:cx="-464.28571"
     inkscape:cy="555.71429"
     inkscape:document-units="mm"
     inkscape:current-layer="layer1"
     showgrid="false"
     inkscape:pagecheckerboard="true"
     inkscape:window-width="1384"
     inkscape:window-height="1163"
     inkscape:window-x="1228"
     inkscape:window-y="505"
     inkscape:window-maximized="0" />
  <metadata
     id="metadata5">
    <rdf:RDF>
      <cc:Work
         rdf:about="">
        <dc:format>image/svg+xml</dc:format>
        <dc:type
           rdf:resource="http://purl.org/dc/dcmitype/StillImage" />
        <dc:title />
      </cc:Work>
    </rdf:RDF>
  </metadata>
  <g
     inkscape:label="Layer 1"
     inkscape:groupmode="layer"
     id="layer1"
     transform="translate(0,-57)">
    <circle
       style="opacity:1;fill:#a1efd3;fill-opacity:1;stroke:#baffff;stroke-width:0;stroke-miterlimit:4;stroke-dasharray:none;stroke-opacity:1"
       id="path815"
       cx="120"
       cy="177"
       r="100" />
    <path
       style="fill:#000000;stroke-width:0.264583"
       id="path41"
       d="m -14.449837,65.515367 c -0.0098,6.335028 -0.0238,12.668714 0.100703,19.002635 0.2809,11.173235 0.379357,22.348958 0.843772,33.516628 0.425142,7.52987 1.046353,15.04562 2.361108,22.47516 0.853665,3.89749 1.9407374,7.7403 3.0655738,11.56693 0.7620904,4.32923 1.5443816,8.65573 2.2474829,12.99517 0.6896929,4.38264 1.0843446,8.80261 1.2154533,13.23531 0.1087686,5.7596 0.083082,11.52081 0.077096,17.28116 0.1361774,6.01033 -0.8394975,11.6506 -1.9366351,17.52171 -1.4097339,6.92502 -2.6891977,13.87251 -3.9776109,20.82029 -0.840328,4.80655 -1.730076,9.60363 -2.421863,14.43438 -0.708348,4.97602 -0.84816,10.00057 -0.919099,15.01796 -0.03661,4.43873 -0.08909,8.87604 0.113807,13.31061 3.070092,11.07786 2.003016,13.11576 12.7748864,21.31771 2.9183324,2.22208 6.647301,3.17328 10.163042,4.21917 2.6139166,0.77761 5.3783596,0.93274 8.0912306,1.21125 4.638435,0.4762 13.458915,0.57623 17.85099,0.67844 25.148296,0.29189 50.299315,0.22209 75.44885,0.19687 7.93109,0.10951 15.86972,-0.19346 23.79985,0.0559 5.18973,0.16319 10.36182,0.74311 15.52826,1.22227 11.35746,1.07054 22.67165,2.53625 34.00574,3.81977 5.29219,0.50679 10.61126,1.20818 15.9422,1.04255 4.44172,-0.13799 4.89054,-0.30853 9.13027,-0.8944 6.01933,-0.94678 11.7748,-2.94984 17.37378,-5.29152 2.74765,-1.26586 4.93857,-2.18193 7.79327,-3.58767 6.94008,-3.67073 11.96071,-9.17198 15.23567,-16.30368 0.52573,-1.14485 0.89348,-2.35585 1.34022,-3.53376 2.40263,-8.23375 1.80479,-16.67612 0.90613,-25.07825 -1.12291,-10.0476 -1.40757,-20.15838 -1.62623,-30.25768 -0.15807,-12.81398 -0.63435,-25.62099 -0.90834,-38.43275 -0.17241,-11.46862 -0.2185,-22.93609 -0.4889,-34.40316 -0.27839,-10.6064 -1.24162,-21.1825 -2.41453,-31.72315 -0.66298,-5.52749 -1.3987,-11.03438 -1.70888,-16.59468 -0.1242,-5.980115 -0.87875,-11.917812 -1.35107,-17.874204 -0.34719,-4.044444 -0.271,-8.167221 -1.02493,-12.170915 -0.28688,-1.523499 -0.67705,-3.025726 -1.01558,-4.538588 -2.72675,-8.445436 -7.02766,-13.278896 -13.75857,-18.565604 12.58388,9.641203 7.98157,22.431509 1.71626,35.698019 -1.42571,3.018862 -5.59088,3.650578 -8.38757,5.473946 -0.41629,0.27141 -0.37141,0.161301 0.57178,-0.0011 8.90019,-1.627343 15.00927,-4.530055 20.94476,-12.182644 1.65785,-2.137451 2.4013,-4.847924 3.60195,-7.271886 1.50563,-5.102837 1.97807,-10.650638 0.82428,-15.887803 -0.3346,-1.518808 -0.37404,-3.166439 -1.12606,-4.527762 -2.29916,-4.161976 -5.28434,-7.906229 -7.9265,-11.859344 -3.55159,-1.93433 -6.8827,-4.344567 -10.65476,-5.802992 -3.54453,-1.370457 -10.98674,-1.825036 -14.99076,-2.039762 -7.19535,-0.385869 -14.41316,-0.404365 -21.61614,-0.488583 -11.83627,-0.09881 -23.67306,-0.07374 -35.50958,-0.05703 -10.05528,0.01648 -20.11057,0.02201 -30.16585,0.02518 -10.35265,0.0025 -20.7053,0.0025 -31.057945,0.0025 -8.018777,-6.8e-5 -16.037552,-1.76e-4 -24.056327,-2.38e-4 -5.372922,-3.9e-5 -10.745843,-5e-5 -16.118763,-5.4e-5 -4.323141,-0.07888 -8.635171,0.01775 -12.940916,0.417314 -4.013692,0.607739 -1.892882,0.225932 -4.967211,0.863789 -0.145431,0.03017 -0.584345,0.1068 -0.437533,0.0843 0.822563,-0.12607 1.642052,-0.271862 2.465051,-0.395048 0.162896,-0.02438 0.41801,0.0997 0.491842,-0.04754 0.06815,-0.135909 -0.30362,-0.01672 -0.455427,-0.02508 -7.340642,-0.403917 -14.046565,1.286711 -20.149624,6.241265 -3.222429,2.616016 -5.449467,6.363696 -7.338661,10.059441 -1.3039322,2.550823 -1.3784947,5.56125 -2.0677422,8.341875 -0.5764813,4.897597 0.350924,9.74283 0.8893535,14.589233 0.4620527,3.28004 1.0152647,6.547703 1.8478427,9.755243 0.409712,1.531967 0.201853,0.804847 1.083703,3.4368 0.07456,0.222515 0.315571,0.883926 0.242993,0.660758 -0.311342,-0.95734 -0.608364,-1.842196 -0.817186,-2.824762 -0.0179,-0.08164 0.0022,-0.307041 -0.05369,-0.244916 -0.06739,0.07488 2.14e-4,0.201488 0.0021,0.30221 0.0045,0.23685 0.01251,0.473623 0.01715,0.710472 0.02685,1.36996 0.02829,2.740129 0.03351,4.110295 -0.03928,4.056575 0.35693,8.099231 0.586085,12.145555 0.155057,3.17033 0.149568,6.34583 0.162193,9.51911 0.01072,5.46217 0.0057,10.92435 0.0041,16.38652 -0.0019,6.31622 -0.0025,12.63244 -0.0029,18.94866 0.01487,5.48623 -0.06638,10.97222 0.106801,16.45612 0.261148,4.33159 0.473875,8.66319 0.570289,13.00157 0.294089,5.21445 0.571412,10.42768 0.711921,15.64882 0.107303,6.10585 0.482346,12.2047 1.131917,18.27592 1.020411,7.83749 3.174195,15.45503 4.802843,23.17328 0.694679,3.26966 0.890303,6.601 0.986727,9.93174 0.05641,2.48571 0.04487,4.97224 0.02821,7.45832 -0.0078,1.21602 -0.0041,0.61023 -0.01093,1.81737 -0.0013,0.2905 -0.02115,1.16148 -0.0041,0.87149 0.02044,-0.34668 0.06625,-1.38506 0.01409,-1.04173 -1.294984,8.52467 7.117715,15.71329 11.008082,23.40822 4.804108,1.5557 9.458259,3.6889 14.412328,4.66708 2.264103,0.44706 4.614748,-0.20135 6.908328,-0.45729 4.826548,-0.53859 9.72584,-2.10299 14.176582,-3.99172 1.571897,-0.66705 3.081925,-1.47141 4.62289,-2.20711 3.955684,-2.15469 7.659523,-4.76458 10.919346,-7.87981 0.944197,-0.90232 1.816224,-1.87726 2.721406,-2.81871 0.266552,-0.27723 1.085868,-1.08749 0.793774,-0.83731 -1.15787,0.99171 -2.263087,2.04329 -3.394634,3.06493 -0.710263,2.55638 -3.576992,1.3775 -5.036621,2.56996 -0.127066,0.10381 0.265774,0.22634 0.429194,0.24102 1.319429,0.11846 2.647669,0.0981 3.971224,0.15407 3.674319,0.15536 7.347973,0.32611 11.022179,0.48412 11.334116,0.49216 22.678006,0.63198 34.016006,1.00332 9.36595,0.47493 18.73173,0.93593 28.10696,1.17769 8.93968,0.1789 17.88168,0.18534 26.82281,0.19425 5.08144,-0.0338 10.16488,0.0791 15.24423,-0.088 12.30488,-1.02435 16.73232,-5.13854 24.31679,-16.2994 1.55795,-2.29257 1.73529,-5.28388 2.22703,-8.01175 0.57703,-3.20099 0.37385,-8.09108 0.3202,-11.45968 -0.29101,-13.63396 -0.71218,-27.26453 -1.48195,-40.88021 -0.87425,-13.85482 -2.20198,-27.67621 -3.5045,-41.49597 -1.0309,-10.99804 -2.66562,-21.92589 -3.87372,-32.90352 -0.83539,-8.17277 -1.78133,-16.32887 -2.87954,-24.470602 -0.625,-4.354063 -0.94876,-8.741122 -1.65037,-13.083058 -0.4668,-1.630272 -0.7029,-3.345198 -1.4004,-4.890988 -2.1705,-4.810274 -5.2488,-9.901309 -10.02744,-12.642776 -7.14028,-4.096316 -11.04392,-4.677395 -18.26014,-4.334674 -10.89133,0.762308 -21.81724,0.820179 -32.72655,1.167756 -17.23852,0.627041 -34.48253,0.661574 -51.725956,0.305318 C 84.802402,60.319346 73.14154,59.916229 61.475974,59.695347 56.785967,59.547896 52.047753,59.760959 47.38045,59.162349 45.486941,58.916243 46.581504,59.05166 44.094958,58.770964 8.958809,54.840826 3.4007536,104.53084 38.536903,108.46098 v 0 c 2.19373,0.2421 0.958387,0.0999 3.704852,0.43651 6.080705,0.58253 12.183346,0.79531 18.291781,0.78887 11.637766,0.21838 23.270628,0.629 34.907063,0.90427 18.118951,0.36949 36.238931,0.33636 54.352611,-0.32043 11.17477,-0.35999 22.36632,-0.42048 33.52292,-1.19962 3.7761,-0.18372 -0.99836,0.10464 -2.41325,-0.33649 -3.4433,-1.07352 -6.9359,-2.20487 -10.03123,-4.05626 -4.21152,-2.51902 -6.69145,-6.916339 -8.55714,-11.219366 -0.48775,-1.12494 -0.60625,-2.376133 -0.90937,-3.5642 -0.0177,-0.185568 -0.0844,-0.740494 -0.0532,-0.556702 0.45287,2.671615 0.58757,5.431825 0.9261,8.120809 0.13885,1.102831 0.28561,2.204649 0.42842,3.306979 1.04546,7.7463 1.9421,15.5062 2.7337,23.28261 1.18989,10.70853 2.75121,21.37295 3.79127,32.09863 1.24498,13.20357 2.51699,26.4084 3.3646,39.64463 0.74517,12.99421 1.1241,26.00428 1.41071,39.01609 0.0256,1.0074 -0.0965,2.02951 0.0768,3.02222 0.0537,0.3078 0.19032,-0.59534 0.29551,-0.88956 0.5377,-1.504 0.61282,-3.27588 1.63304,-4.50481 5.70524,-6.87238 10.0627,-12.64493 19.08382,-12.79265 -4.36398,0.34212 -8.78841,-0.18937 -13.15757,0.0465 -8.53296,-0.008 -17.06673,-0.0133 -25.59841,-0.17804 -9.25493,-0.23275 -18.49888,-0.71952 -27.74536,-1.16716 -11.1672,-0.36524 -22.33994,-0.50816 -33.503541,-0.98392 -3.824499,-0.16443 -7.647791,-0.35826 -11.473142,-0.50147 -6.680674,-0.2501 -13.646267,-0.63644 -20.119615,1.45274 -2.673538,0.86284 -5.15851,2.22688 -7.737766,3.34032 -1.97458,1.54485 -5.481521,3.78819 -7.433572,6.17011 -0.04588,0.056 0.84959,-0.63992 0.719296,-0.1522 -0.522962,0.41087 -1.157888,0.81499 -1.792795,1.02911 -0.34974,0.11795 -1.432817,0.1746 -1.075031,0.26526 0.83249,0.21093 1.715899,0.0763 2.573848,0.1145 3.875701,1.50096 7.751402,3.00192 11.627104,4.50287 10.304605,21.98061 9.843187,28.48191 10.009256,16.02066 0.02074,-3.13514 0.02995,-6.27092 -0.05317,-9.40535 -0.215567,-6.28007 -0.732301,-12.55207 -2.052518,-18.70944 -1.302401,-6.09757 -2.893254,-12.13208 -4.012893,-18.26759 -0.546532,-4.69626 -0.743686,-9.42887 -0.848617,-14.15358 -0.142005,-5.14309 -0.359275,-10.28308 -0.706131,-15.41685 -0.105058,-4.56844 -0.296005,-9.13244 -0.590724,-13.69283 -0.229455,-4.87048 0.02061,-9.75575 -0.07355,-14.62969 5.29e-4,-6.31255 0.0011,-12.62511 0.0029,-18.93767 0.0016,-5.53405 0.0068,-11.06812 -0.0045,-16.60216 -0.01656,-4.05997 -0.02397,-8.12246 -0.243658,-12.177759 -0.182665,-3.160183 -0.50361,-6.317974 -0.504608,-9.483616 -0.01579,-3.856204 7.94e-4,-7.725781 -0.474284,-11.559675 -0.335909,-2.076378 -0.410223,-2.901343 -0.958154,-4.904251 -0.244197,-0.892642 -0.540308,-1.770327 -0.82278,-2.651604 -0.06208,-0.19369 -0.26004,-0.769977 -0.210685,-0.572661 0.126561,0.505936 0.285504,1.00337 0.442807,1.500607 0.06793,0.214742 -0.116388,-0.435167 -0.174583,-0.652751 -0.107569,-0.260377 0.16491,1.114707 0.119192,0.83672 -0.18116,-1.101524 -0.343154,-2.214953 -0.591934,-3.302272 -0.186081,-1.636727 -0.380222,-3.272052 -0.604213,-4.904122 -0.03403,-0.247976 -0.0013,-0.967775 -0.110855,-0.742676 -0.342527,0.704403 0.389313,1.670378 -0.184401,2.342554 -1.895824,6.330728 -2.106748,9.704208 -8.437949,14.470348 -3.242725,2.441132 -7.327664,3.521603 -11.136357,4.924547 -0.895342,0.329802 -1.90042,0.179599 -2.853314,0.228591 -0.258006,0.01327 -1.032132,-0.04975 -0.773899,-0.0421 0.46998,0.01391 0.939493,0.04061 1.40924,0.06091 3.519434,0.09919 6.98468,-0.01108 10.445353,-0.777044 0.03199,-0.0071 -0.06553,6.88e-4 -0.09829,0.001 -0.348924,0.0333 -0.697849,0.0666 -1.046774,0.09989 2.733821,-0.271217 5.468901,-0.209512 8.216755,-0.19364 5.372804,5e-6 10.745607,1.5e-5 16.118411,5.4e-5 8.018902,6.2e-5 16.037803,1.7e-4 24.056705,2.38e-4 10.357916,3e-6 20.715826,-5e-6 31.073746,-0.0025 10.07355,-0.0032 20.14711,-0.0087 30.22065,-0.02523 11.62015,-0.01641 23.24056,-0.04137 34.86046,0.05373 5.10627,0.05843 8.40436,0.07742 13.47757,0.207563 1.83535,0.04708 3.67037,0.108502 5.50489,0.181077 1.15515,0.0457 2.33335,0.415604 3.46382,0.173735 0.45477,-0.0973 -0.82274,-0.43386 -1.23411,-0.65079 -2.33102,-1.522839 -4.66204,-3.045678 -6.99306,-4.568517 -2.06372,-3.427613 -4.34347,-6.734107 -6.19117,-10.282838 -1.24352,-2.388329 -0.1395,-7.85192 0.71971,-10.597648 1.01956,-1.893262 1.6745,-4.034193 3.05869,-5.679787 2.61109,-3.104209 7.53353,-7.711602 12.19902,-8.241922 0.76831,-0.08733 -5.32417,1.092124 -2.26742,0.490028 -5.51369,1.14278 -14.65915,2.933759 -17.42377,7.876275 -9.4418,16.879809 -11.20099,27.61406 2.44994,39.328452 0.24505,0.191802 0.48872,0.385392 0.73516,0.575405 0.10456,0.08062 0.38669,0.349092 0.3178,0.236451 -0.12479,-0.204037 -0.34049,-0.337162 -0.49238,-0.521907 -0.5669,-0.689512 -1.16502,-1.35818 -1.66265,-2.099233 -1.55389,-2.313964 -1.58963,-3.137662 -2.56853,-5.989928 -0.0768,-0.53904 -0.16416,-1.07668 -0.23039,-1.617119 -0.0231,-0.188403 0.0788,0.371912 0.10088,0.56043 0.34293,2.921178 0.38222,5.863429 0.6171,8.793192 0.45347,5.587534 1.1542,11.157703 1.27451,16.767753 0.38499,6.45398 1.124,12.86166 1.93689,19.27416 1.03037,9.07783 1.85262,18.19157 2.11641,27.32664 0.27065,11.43022 0.30536,22.86106 0.48641,34.2928 0.275,12.81953 0.74937,25.63435 0.90885,38.45608 0.25562,11.56454 0.62125,23.13952 1.91546,34.64354 0.23875,2.06493 0.46346,3.95512 0.49427,6.0224 0.004,0.28366 -0.17609,0.64607 0.0203,0.85082 0.15891,0.16571 0.10083,-0.44798 0.15124,-0.67197 0.2803,-0.95069 0.5606,-1.90137 0.84089,-2.85206 1.55696,-3.31437 4.06791,-6.59099 7.45819,-8.17789 0.26473,-0.10674 0.51183,-0.27843 0.79419,-0.32021 0.26155,-0.0387 -0.48585,0.20875 -0.7298,0.31068 -1.31585,0.54979 -2.66051,1.06177 -3.91376,1.74014 -1.8035,0.75591 -3.60343,1.56657 -5.52646,1.97288 -0.33913,0.0693 -0.68257,0.12003 -1.01738,0.20786 -0.0947,0.0249 -0.1664,0.12223 -0.26408,0.12831 -3.57945,0.22265 -7.15404,-0.47558 -10.70746,-0.72689 -11.67119,-1.32009 -23.32151,-2.83181 -35.01769,-3.92388 -3.13208,-0.28969 -9.42438,-0.89028 -12.42519,-1.08578 -10.50978,-0.68469 -21.04126,-0.34648 -31.56407,-0.40544 -24.760863,0.0249 -49.523088,0.0915 -74.282822,-0.18444 -2.795069,-0.0593 -5.590606,-0.0996 -8.385207,-0.17793 -1.654316,-0.0463 -3.306095,-0.20697 -4.961025,-0.19604 -0.202157,10e-4 -0.726904,0.11824 -0.560142,0.23251 1.57828,1.08157 3.641407,1.46902 5.003642,2.81255 8.036573,7.92621 6.805491,7.63532 8.816414,16.888 -0.382698,-0.52073 -0.04763,-0.0384 -0.04932,-1.76485 -0.0026,-2.6216 -0.0031,-5.24325 0.02109,-7.86477 0.0375,-2.91099 0.05202,-5.83044 0.434782,-8.72192 0.565446,-4.12949 1.392256,-8.21656 2.078865,-12.32664 1.277914,-6.9391 2.573219,-13.87241 3.971822,-20.78901 0.655646,-3.55887 1.2344,-6.47719 1.725798,-10.07691 0.747165,-5.47332 0.951277,-10.99004 1.048528,-16.50721 0.0066,-6.33852 0.03653,-12.67824 -0.105387,-19.0156 -0.237193,-6.56284 -0.787079,-13.11097 -1.838682,-19.59822 -1.044665,-6.37612 -2.033757,-12.78508 -3.625588,-19.05092 -0.643234,-2.18812 -1.228672,-4.39176 -1.873535,-6.5794 -1.070886,-5.06981 -1.078572,-10.30798 -1.567093,-15.44903 -0.454425,-10.81657 -0.527902,-21.641974 -0.810885,-32.463888 -0.131818,-5.988647 -0.08643,-11.977906 -0.08999,-17.967789 0,-35.355269 -49.999899,-35.355269 -49.999899,0 z" />
  </g>
</svg>
