<?xml version="1.0" encoding="UTF-8" standalone="no"?>
<!-- Created with Inkscape (http://www.inkscape.org/) -->

<svg
   width="240mm"
   height="240mm"
   viewBox="0 0 240 240"
   version="1.1"
   id="svg8"
   inkscape:version="1.1.1 (3bf5ae0d25, 2021-09-20)"
   sodipodi:docname="maximized_focus.svg"
   xmlns:inkscape="http://www.inkscape.org/namespaces/inkscape"
   xmlns:sodipodi="http://sodipodi.sourceforge.net/DTD/sodipodi-0.dtd"
   xmlns="http://www.w3.org/2000/svg"
   xmlns:svg="http://www.w3.org/2000/svg"
   xmlns:rdf="http://www.w3.org/1999/02/22-rdf-syntax-ns#"
   xmlns:cc="http://creativecommons.org/ns#"
   xmlns:dc="http://purl.org/dc/elements/1.1/">
  <defs
     id="defs2" />
  <sodipodi:namedview
     id="base"
     pagecolor="#ffffff"
     bordercolor="#666666"
     borderopacity="1.0"
     inkscape:pageopacity="0.0"
     inkscape:pageshadow="2"
     inkscape:zoom="0.35"
     inkscape:cx="78.571429"
     inkscape:cy="555.71429"
     inkscape:document-units="mm"
     inkscape:current-layer="layer1"
     showgrid="false"
     inkscape:pagecheckerboard="true"
     inkscape:window-width="1920"
     inkscape:window-height="1047"
     inkscape:window-x="960"
     inkscape:window-y="563"
     inkscape:window-maximized="0" />
  <metadata
     id="metadata5">
    <rdf:RDF>
      <cc:Work
         rdf:about="">
        <dc:format>image/svg+xml</dc:format>
        <dc:type
           rdf:resource="http://purl.org/dc/dcmitype/StillImage" />
        <dc:title />
      </cc:Work>
    </rdf:RDF>
  </metadata>
  <g
     inkscape:label="Layer 1"
     inkscape:groupmode="layer"
     id="layer1"
     transform="translate(0,-57)">
    <circle
       style="opacity:1;fill:#28ca41;fill-opacity:1;stroke:#baffff;stroke-width:0;stroke-miterlimit:4;stroke-dasharray:none;stroke-opacity:1"
       id="path815"
       cx="120"
       cy="177"
       r="100" />
    <path
       style="fill:#000000;stroke-width:0.264583"
       id="path186"
       d="m -16.03609,64.168073 c -0.489272,5.523907 -0.561548,11.073836 -0.649441,16.61537 -0.05956,4.285102 -0.0801,8.570584 -0.0842,12.856051 -0.126719,5.76375 0.188708,11.512496 0.842215,17.236856 0.406948,3.2431 0.766969,6.49202 1.062228,9.74742 0.293478,4.59297 0.285354,9.19649 0.464476,13.79393 0.531692,7.48389 1.200381,14.95565 1.85193,22.4297 0.688751,7.60743 1.602671,15.19272 2.15098,22.81229 0.386875,5.78157 0.4131604,11.57829 0.4439034,17.37015 0.018317,6.61225 0.00689,13.22454 6.88e-4,19.83679 -0.00546,5.24047 -0.00701,10.48094 -0.00791,15.72141 -0.1210354,4.81293 0.1891519,9.64355 -0.071554,14.45214 -0.234999,3.28495 -0.454079,6.57014 -0.582023,9.86115 -0.09378,2.70966 -0.103237,5.42117 -0.107774,8.13214 -0.0012,1.86103 0.0015,3.72206 0.0034,5.58309 -0.05233,6.94963 1.3227305,11.97966 6.5544102,18.66575 2.7192412,3.47519 7.1071385,5.28087 10.9828313,7.39043 1.6558919,0.9013 3.6265225,1.03231 5.4397845,1.54847 7.187775,1.58586 14.517545,2.34084 21.743343,3.71182 7.395302,1.65479 14.958941,2.08832 22.507312,2.3567 7.271912,0.18951 14.546974,0.17955 21.820759,0.17585 7.968734,-0.0102 15.937471,-0.0165 23.906212,-0.0202 7.71928,-0.003 15.43857,-0.004 23.15785,-0.004 7.08013,-8e-5 14.16026,3e-5 21.24039,8e-5 5.90546,-0.21254 11.77887,0.20734 17.65046,0.77532 8.65324,1.14539 17.34115,1.94207 26.04752,2.54389 5.91794,0.41021 11.84898,0.52074 17.77898,0.5584 5.22522,-0.009 10.40278,-0.56806 15.51178,-1.63145 7.24531,-1.68149 12.96095,-4.96472 17.83171,-10.8741 1.56617,-1.90012 2.45036,-4.27191 3.67554,-6.40786 2.5227,-6.07824 2.66016,-12.53017 2.70816,-18.9872 0.0104,-5.50211 -0.0102,-11.00422 -0.0191,-16.50633 -0.0106,-7.8097 -0.0107,-15.61941 -0.0115,-23.42912 -7.9e-4,-8.82267 -5.3e-4,-17.64534 -5.3e-4,-26.46801 9e-5,-6.85522 1.3e-4,-13.71043 1.5e-4,-20.56565 2e-5,-6.1709 2e-5,-12.34179 2e-5,-18.51269 -0.0201,-6.67438 0.0701,-13.349 -0.10024,-20.02157 -0.21348,-4.87738 -0.47019,-9.75154 -0.57688,-14.63273 -0.0837,-4.80472 -0.0808,-9.61038 -0.0839,-14.41565 -0.0329,-6.77526 -0.64208,-13.51873 -1.47857,-20.235472 -0.48172,-3.764722 -1.0976,-7.498977 -1.33259,-11.289316 -0.19523,-3.548244 -0.16378,-7.102383 -0.30492,-10.652163 -2.57294,-11.091972 -1.37174,-11.960752 -12.39813,-21.328936 -2.50105,-2.124937 -5.89339,-2.933475 -8.99946,-3.99318 -2.1376,-0.729288 -4.41377,-0.969806 -6.6413,-1.343015 -1.86845,-0.313049 -8.39115,-0.997422 -10.37281,-1.213257 -11.13253,-1.340962 -22.33103,-1.968512 -33.53156,-2.363041 -11.31197,-0.54136 -22.55631,-1.88296 -33.83367,-2.85726 -11.97028,-0.953399 -23.97078,-1.411347 -35.97441,-1.633768 -9.39184,-0.121427 -18.784821,-0.09256 -28.177209,-0.08493 -8.538483,0.0085 -17.076962,0.01493 -25.615447,0.01904 -4.256358,0.0019 -8.512715,0.0024 -12.769072,0.0025 -4.072824,-0.139505 -8.111461,0.344748 -12.12378,0.985437 -2.123348,0.267245 -4.227335,0.66781 -6.338772,1.013607 -34.887317,5.73324 -26.7792906,55.071358 8.108026,49.338117 v 0 c 2.046135,-0.337142 4.083967,-0.72659 6.142682,-0.981781 2.493317,-0.401511 1.391131,-0.397894 4.212907,-0.355481 4.26403,-9e-5 8.528058,-5.29e-4 12.792086,-0.0024 8.544009,-0.0041 17.088016,-0.01056 25.63202,-0.01905 9.072933,-0.0074 18.146414,-0.03544 27.218859,0.07652 10.87871,0.19765 21.75455,0.60614 32.60389,1.457963 12.12494,1.039559 24.21486,2.493116 36.38093,3.01117 9.9788,0.34331 19.95651,0.894789 29.87335,2.100993 1.4929,0.161658 2.986,0.321487 4.4787,0.484976 1.0092,0.110532 3.90671,0.630515 3.04422,0.09496 -1.47776,-0.917604 -3.34045,-1.3247 -4.52597,-2.597616 -8.66438,-9.303051 -7.42708,-8.04918 -9.12979,-17.441643 0.33848,3.856749 -0.0766,7.777626 0.36126,11.634978 0.33192,4.736542 0.93863,9.429478 1.60487,14.128008 0.58461,4.67411 1.06173,9.35941 1.09377,14.0765 0.003,5.16629 0.002,10.33302 0.0963,15.49864 0.11291,4.97629 0.34179,9.94706 0.58408,14.91855 0.19805,6.20385 0.019,12.41433 0.0806,18.62041 0,6.17084 0,12.34168 -2e-5,18.51252 -2e-5,6.85509 -6e-5,13.71018 -1.5e-4,20.56528 -9e-5,8.82472 -2.4e-4,17.64944 5.3e-4,26.47416 7.9e-4,7.83475 10e-4,15.6695 0.0116,23.50425 0.009,5.36164 0.028,10.72328 0.0202,16.08493 -0.004,0.64096 -0.18978,3.01378 -0.0278,3.76499 0.0144,0.0666 0.0455,-0.12873 0.0624,-0.19477 0.10543,-0.41126 0.17049,-0.83389 0.30456,-1.23673 0.31697,-0.95239 0.69781,-1.88232 1.04672,-2.82348 0.97844,-1.56442 1.70235,-3.32048 2.93532,-4.69327 3.14406,-3.5006 6.27805,-5.89774 10.65457,-7.04417 0.0937,-0.0245 -0.18597,0.0546 -0.27895,0.082 0.14375,-0.0154 0.56875,-0.091 0.43125,-0.0463 -1.44462,0.46916 -3.06149,0.20606 -4.54782,0.43414 -4.88803,-0.0292 -9.77732,-0.10509 -14.65572,-0.44143 -8.26957,-0.5659 -16.51342,-1.36727 -24.73396,-2.4361 -7.44761,-0.7021 -14.90875,-1.2122 -22.39562,-1.00103 -7.08074,-5e-5 -14.16148,-1.6e-4 -21.24222,-8e-5 -7.7265,2.3e-4 -15.453,7.9e-4 -23.17951,0.004 -7.969617,0.004 -15.939233,0.01 -23.908848,0.0202 -6.69254,0.003 -13.386157,0.0147 -20.077234,-0.14634 -5.050107,-0.16577 -10.111581,-0.34093 -15.04819,-1.53686 -6.416021,-1.1847 -12.882988,-2.0248 -19.30136,-3.19247 9.389958,4.19374 14.94317,11.39298 15.404953,22.26673 0.01823,0.42926 -0.02014,-1.76943 -0.0011,-1.28896 -0.0019,-1.8178 -0.0045,-3.63561 -0.0034,-5.45341 0.0033,-2.10985 0.0061,-4.22013 0.07233,-6.32916 0.116954,-3.26325 0.400701,-6.51623 0.578752,-9.77632 0.183145,-5.46901 0.09033,-10.9407 0.110329,-16.41228 7.94e-4,-5.22767 0.0024,-10.45533 0.0079,-15.683 0.0063,-6.71796 0.01802,-13.43595 -0.0013,-20.1539 -0.03797,-6.91686 -0.09341,-13.83877 -0.575993,-20.74204 -0.580252,-7.85372 -1.466347,-15.67745 -2.207456,-23.51694 -0.586996,-6.72026 -1.173218,-13.43939 -1.705959,-20.16403 -0.250251,-5.42527 -0.138594,-10.86776 -0.630438,-16.28293 -0.339223,-3.66401 -0.737135,-7.32274 -1.190117,-10.97431 -0.458836,-3.78296 -0.601229,-7.581564 -0.505061,-11.393096 0.0037,-4.039116 0.02267,-8.078245 0.07804,-12.117028 0.06391,-4.105953 0.108868,-8.216333 0.396155,-12.314156 3.597169,-35.171911 -46.14327,-40.259032 -49.740408,-5.087232 z" />
    <path
       style="fill:#000000;stroke-width:0.264583"
       id="path195"
       d="m 18.750609,87.928979 c 0,5.93625 0,11.8725 0,17.808751 0,8.52646 0,17.05292 0,25.57938 -0.01015,7.69114 -0.127333,15.37592 0.365067,23.05418 1.264213,9.52139 3.640309,18.84645 5.968605,28.15058 1.740193,7.18584 2.855319,14.4928 4.016594,21.78791 1.295905,7.65716 2.490094,15.33012 2.964765,23.08574 0.243467,5.29004 0.288141,10.58643 0.291727,15.88121 -0.01699,0.0845 -0.05129,0.3395 -0.05095,0.25336 0.0066,-1.71232 0.111736,-0.97537 0.401495,-3.08523 0.02487,-0.18113 -0.22596,0.35596 -0.157348,0.52542 3.95496,9.76821 4.864822,21.5902 12.182139,29.17417 4.27814,4.43403 12.214854,1.6279 18.322282,2.44185 10.302353,-2.84389 20.92757,-3.98068 31.538097,-4.93299 9.649278,-0.77629 19.340768,-1.37654 28.985918,-0.32491 7.53563,1.24435 15.1305,1.97838 22.74972,2.44108 7.3519,0.50835 14.71706,0.14445 22.07184,-0.0721 4.68816,-0.13525 9.37715,-0.24304 14.06699,-0.29613 -1.30998,0.17574 1.48239,-0.22219 0.46811,0.11384 -0.28147,0.0933 -1.17003,-0.1287 -0.88886,-0.0346 0.5858,0.19615 1.21285,0.23592 1.82063,0.34655 2.23789,0.40734 2.42521,0.42497 4.64237,0.77848 12.83649,1.78489 23.98458,-1.67674 30.95035,-13.8162 1.73231,-3.01895 2.02692,-6.65968 3.04037,-9.98953 0.004,-2.15799 0.12427,-4.31885 0.0128,-6.47396 -0.0362,-0.70077 -0.70084,-4.95425 -0.90557,-6.24274 -0.43236,-2.72109 -0.81714,-5.41928 -1.10416,-8.15962 -0.83681,-7.82169 -1.85692,-15.61719 -2.47024,-23.46114 -0.49171,-7.05245 -0.55038,-14.1245 -0.59668,-21.19085 -0.0523,-7.00705 -0.0563,-14.0104 0.19435,-21.01332 0.27231,-5.79141 0.97878,-11.54635 1.49393,-17.31803 0.29808,-3.39405 0.49386,-6.79599 0.57706,-10.2019 0.034,-1.97716 0.019,-3.95474 0.0155,-5.93208 0.0874,-3.84826 -0.10808,-7.68471 -0.45039,-11.51643 -0.20849,-2.79557 -0.47482,-5.57785 -1.01021,-8.33305 -0.44838,-2.67167 -1.22629,-5.25986 -2.16627,-7.79754 -2.05669,-5.493015 -4.48545,-8.382117 -8.9793,-12.847892 -1.67155,-1.661117 -5.04956,-3.268146 -6.98163,-4.314052 -4.26618,-2.137374 -8.85953,-3.258493 -13.55752,-3.910228 -6.38732,-0.498701 -12.80765,-0.35752 -19.20945,-0.359156 -13.98242,0.0057 -27.96483,0.01152 -41.94725,0.01468 -12.49913,0.09818 -25.00283,-0.159515 -37.500199,0.100366 -5.783233,0.09991 -11.545241,0.543653 -17.308351,0.992585 -4.151296,0.250175 -8.303619,0.348782 -12.447322,0.717627 -3.237146,0.278196 -6.441866,0.854349 -9.634093,1.446732 -34.72229,6.66014 -25.303427,55.764878 9.418865,49.104728 v 0 c 1.55271,-0.36853 3.159522,-0.56429 4.732668,-0.75605 3.930962,-0.36789 7.886475,-0.32512 11.822118,-0.66486 4.835662,-0.37837 9.667319,-0.7761 14.520949,-0.85307 12.131495,-0.28892 24.273165,0.0486 36.406655,-0.0882 13.97451,-0.003 27.94901,-0.009 41.92351,-0.0147 2.48952,5.3e-4 5.47162,-7.9e-4 7.9985,0.007 1.79609,0.006 3.62623,0.10881 5.42327,0.0552 0.0289,-8e-4 -0.0476,-0.0328 -0.0714,-0.0491 -0.15424,-0.0328 -3.73687,-1.10031 -1.90586,-0.52412 -0.72721,-0.43602 -1.47851,-0.83419 -2.18165,-1.30805 -3.30618,-2.2281 -5.98307,-5.60746 -7.39118,-9.33354 0.0592,0.15837 0.21819,0.63925 0.1776,0.47512 -0.12617,-0.51029 -0.28996,-1.01054 -0.43494,-1.51581 0.0442,0.16891 0.15573,0.67977 0.13253,0.50673 -0.38718,-2.8884 -0.0658,0.34139 0.17881,0.95826 -0.0744,-0.65488 -0.0945,-1.31583 -0.18668,-1.96845 -0.0529,-0.3744 0.0469,0.75479 0.0738,1.13195 0.0571,0.803 0.12392,1.59066 0.19476,2.3928 0.0361,0.40859 0.0743,0.81699 0.11152,1.22548 0.21681,2.37073 0.33847,4.72772 0.24832,7.11337 0.003,1.56331 0.0131,3.12674 -0.002,4.69 -0.0473,2.31478 -0.19966,4.62581 -0.39436,6.93256 -0.58733,6.65462 -1.40532,13.29058 -1.65863,19.97172 -0.27015,7.70346 -0.28872,15.40739 -0.22456,23.11513 0.0558,8.27274 0.148,16.5516 0.7517,24.80626 0.66703,8.33471 1.69307,16.62526 2.60893,24.93472 0.4829,4.3174 0.97243,8.672 1.79666,12.94229 0.0101,0.0524 0.0426,-0.0979 0.064,-0.14691 0.0778,-1.19662 0.15567,-2.39323 0.23351,-3.58985 0.9254,-2.63083 1.27894,-5.53964 2.77621,-7.89248 4.5768,-7.19209 8.34043,-9.02695 16.1979,-11.29745 1.37842,-0.39831 2.86439,-0.18293 4.29863,-0.22382 0.17623,-0.005 0.36711,0.002 0.52181,0.0864 0.10889,0.0595 -0.24816,-0.003 -0.37225,-0.005 -4.78821,-0.74652 -9.5388,-1.90471 -14.41838,-1.81402 -4.99025,0.0574 -9.97965,0.16976 -14.96812,0.31454 -5.87251,0.173 -11.75354,0.52467 -17.62458,0.13906 -6.95064,-0.40412 -13.85038,-1.20994 -20.73104,-2.27967 -4.74734,-0.4533 -5.85519,-0.63547 -10.72537,-0.77561 -9.27402,-0.26686 -18.543892,0.36061 -27.785518,1.05624 -12.218747,1.12465 -24.512619,2.3821 -36.387807,5.61513 5.135386,0.99962 12.0303,-0.99801 15.406156,2.99886 6.649632,7.8729 7.397139,19.24126 11.399305,28.73772 0.133975,0.3179 0.210109,-0.65768 0.293624,-0.99239 0.90147,-3.61283 1.667952,-7.23057 1.583995,-10.98099 -0.0056,-6.35887 -0.06791,-12.72006 -0.396135,-19.07175 -0.624197,-9.30318 -1.877541,-18.53275 -3.482297,-27.71779 -1.390534,-8.73181 -2.778593,-17.47017 -4.890299,-26.06397 -0.911564,-3.64268 -1.845535,-7.2765 -2.66944,-10.9405 -0.563861,-2.50756 -1.032377,-5.03621 -1.614783,-7.53952 -0.07738,-0.3326 -0.205007,-0.65148 -0.307512,-0.97721 -0.513102,-6.52206 -0.124706,-13.07488 -0.246275,-19.60963 0,-8.52646 0,-17.05292 0,-25.57937 0,-5.936256 0,-11.872506 0,-17.808756 0,-35.355268 -49.9999,-35.355268 -49.9999,0 z" />
  </g>
</svg>
