<?xml version="1.0" encoding="UTF-8" standalone="no"?>
<!-- Created with Inkscape (http://www.inkscape.org/) -->

<svg
   width="240mm"
   height="240mm"
   viewBox="0 0 240 240"
   version="1.1"
   id="svg8"
   inkscape:version="1.1.1 (3bf5ae0d25, 2021-09-20)"
   sodipodi:docname="minimize_focus.svg"
   xmlns:inkscape="http://www.inkscape.org/namespaces/inkscape"
   xmlns:sodipodi="http://sodipodi.sourceforge.net/DTD/sodipodi-0.dtd"
   xmlns="http://www.w3.org/2000/svg"
   xmlns:svg="http://www.w3.org/2000/svg"
   xmlns:rdf="http://www.w3.org/1999/02/22-rdf-syntax-ns#"
   xmlns:cc="http://creativecommons.org/ns#"
   xmlns:dc="http://purl.org/dc/elements/1.1/">
  <defs
     id="defs2" />
  <sodipodi:namedview
     id="base"
     pagecolor="#ffffff"
     bordercolor="#666666"
     borderopacity="1.0"
     inkscape:pageopacity="0.0"
     inkscape:pageshadow="2"
     inkscape:zoom="0.35"
     inkscape:cx="78.571429"
     inkscape:cy="554.28571"
     inkscape:document-units="mm"
     inkscape:current-layer="layer1"
     showgrid="false"
     inkscape:pagecheckerboard="true"
     inkscape:window-width="1396"
     inkscape:window-height="1104"
     inkscape:window-x="902"
     inkscape:window-y="510"
     inkscape:window-maximized="0" />
  <metadata
     id="metadata5">
    <rdf:RDF>
      <cc:Work
         rdf:about="">
        <dc:format>image/svg+xml</dc:format>
        <dc:type
           rdf:resource="http://purl.org/dc/dcmitype/StillImage" />
        <dc:title />
      </cc:Work>
    </rdf:RDF>
  </metadata>
  <g
     inkscape:label="Layer 1"
     inkscape:groupmode="layer"
     id="layer1"
     transform="translate(0,-57)">
    <circle
       style="opacity:1;fill:#fec02f;fill-opacity:1;stroke:#baffff;stroke-width:0;stroke-miterlimit:4;stroke-dasharray:none;stroke-opacity:1"
       id="path815"
       cx="120"
       cy="177"
       r="100" />
    <path
       style="fill:#000000;stroke-width:0.264583"
       id="path41"
       d="m 11.884702,299.55191 c 19.971517,0 39.943034,0 59.914549,0 23.563212,0.0655 47.123899,0.0388 70.684159,-0.34566 11.55627,-0.21057 23.11384,-0.32968 34.67181,-0.38561 8.46694,0.11784 16.9176,0.73497 25.37425,1.13791 7.41412,0.59347 14.83121,1.13068 22.25817,1.54752 35.29991,1.97765 38.09673,-47.94396 2.79681,-49.92161 v 0 c -7.56836,-0.42317 -15.12322,-1.00456 -22.68132,-1.56943 -9.32784,-0.44211 -18.64918,-1.13531 -27.99059,-1.1937 -11.7492,0.0572 -23.498,0.1778 -35.24547,0.39168 -23.28817,0.38052 -46.576721,0.40286 -69.867819,0.339 -19.971515,0 -39.943032,0 -59.914549,0 -35.355268,0 -35.355268,49.9999 0,49.9999 z" />
    <path
       style="fill:#000000;stroke-width:0.264583"
       id="path43"
       d="m 5.5252286,267.38393 c -0.044297,0.0422 -0.1939018,0.13166 -0.1328923,0.12672 12.9320177,-1.04686 -10.8524441,0.4563 8.9401577,-0.83602 10.652052,-0.69551 21.320991,-0.89702 31.990054,-1.14658 23.506181,-0.44359 47.016723,-0.57692 70.526542,-0.63685 13.08823,-0.0221 26.17648,-0.008 39.26471,5.3e-4 8.86596,0.006 17.73192,0.009 26.59788,0.0101 6.83717,7.9e-4 13.67434,7.9e-4 20.51151,5.3e-4 5.28274,-5e-5 10.56548,-10e-5 15.84822,-1.2e-4 0.6047,-1e-5 1.2094,-1e-5 1.8141,-1e-5 2.16376,-10e-6 4.3003,0.002 6.46382,-0.13648 1.93889,-0.12402 2.92494,-0.3771 1.96513,-0.14202 1.12465,0.0248 2.24951,0.0399 3.37425,0.0602 35.34963,0.63171 36.24299,-49.36021 0.89337,-49.99192 v 0 c -2.02785,-0.0359 -4.05617,-0.082 -6.08438,-0.0352 -2.86251,0.1507 -5.51631,0.37976 -8.42655,0.24549 -5.28276,2e-5 -10.56553,7e-5 -15.84829,1.2e-4 -6.83464,4e-5 -13.66928,1.2e-4 -20.50392,-5.3e-4 -8.85759,-0.001 -17.71517,-0.004 -26.57275,-0.0101 -13.14158,-0.009 -26.28318,-0.0226 -39.42475,-2.7e-4 -23.859909,0.061 -47.720552,0.1972 -71.576708,0.65057 -10.124932,0.24023 -15.608401,0.30676 -25.451899,0.76268 -7.402624,0.34287 -14.8863964,0.72155 -22.2244007,1.83792 -1.4523617,0.22096 -2.8892127,0.534 -4.3338191,0.801 -34.2524632,8.76149 -21.8618492,57.20179 12.3906154,48.4403 z" />
    <path
       style="fill:#000000;stroke-width:0.264583"
       id="path45"
       d="m 4.8907932,237.81851 c 20.9208568,0.10646 41.8446958,-0.16504 62.7650908,0 6.818275,0.0538 13.635386,0.20809 20.45308,0.31214 31.783656,0.7166 63.540236,2.27536 95.295736,3.74557 13.17725,0.68198 26.37164,0.80142 39.56327,0.85707 8.52077,0.25982 17.10155,0.27158 25.57628,1.30298 35.12631,4.01723 40.80752,-45.65885 5.68123,-49.67609 v 0 c -10.30517,-1.13783 -20.68813,-1.4423 -31.04813,-1.62636 -12.49033,-0.0519 -24.98355,-0.15466 -37.46024,-0.804 -32.27399,-1.49422 -64.54923,-3.0759 -96.852158,-3.79335 -7.06969,-0.10596 -14.138804,-0.26213 -21.209068,-0.31786 -20.920398,-0.16491 -41.844232,0.10637 -62.7650908,0 -35.3552672,0 -35.3552672,49.9999 0,49.9999 z" />
  </g>
</svg>
