<?xml version="1.0" encoding="UTF-8" standalone="no"?>
<!-- Created with Inkscape (http://www.inkscape.org/) -->

<svg
   width="240mm"
   height="240mm"
   viewBox="0 0 240 240"
   version="1.1"
   id="svg8"
   inkscape:version="1.1.1 (3bf5ae0d25, 2021-09-20)"
   sodipodi:docname="minimize_focus_hover.svg"
   xmlns:inkscape="http://www.inkscape.org/namespaces/inkscape"
   xmlns:sodipodi="http://sodipodi.sourceforge.net/DTD/sodipodi-0.dtd"
   xmlns="http://www.w3.org/2000/svg"
   xmlns:svg="http://www.w3.org/2000/svg"
   xmlns:rdf="http://www.w3.org/1999/02/22-rdf-syntax-ns#"
   xmlns:cc="http://creativecommons.org/ns#"
   xmlns:dc="http://purl.org/dc/elements/1.1/">
  <defs
     id="defs2" />
  <sodipodi:namedview
     id="base"
     pagecolor="#ffffff"
     bordercolor="#666666"
     borderopacity="1.0"
     inkscape:pageopacity="0.0"
     inkscape:pageshadow="2"
     inkscape:zoom="0.35"
     inkscape:cx="-464.28571"
     inkscape:cy="555.71429"
     inkscape:document-units="mm"
     inkscape:current-layer="layer1"
     showgrid="false"
     inkscape:pagecheckerboard="true"
     inkscape:window-width="1300"
     inkscape:window-height="997"
     inkscape:window-x="794"
     inkscape:window-y="745"
     inkscape:window-maximized="0" />
  <metadata
     id="metadata5">
    <rdf:RDF>
      <cc:Work
         rdf:about="">
        <dc:format>image/svg+xml</dc:format>
        <dc:type
           rdf:resource="http://purl.org/dc/dcmitype/StillImage" />
        <dc:title />
      </cc:Work>
    </rdf:RDF>
  </metadata>
  <g
     inkscape:label="Layer 1"
     inkscape:groupmode="layer"
     id="layer1"
     transform="translate(0,-57)">
    <circle
       style="opacity:1;fill:#f1fa8c;fill-opacity:1;stroke:#baffff;stroke-width:0;stroke-miterlimit:4;stroke-dasharray:none;stroke-opacity:1"
       id="path815"
       cx="120"
       cy="177"
       r="100" />
    <path
       style="fill:#000000;stroke-width:0.264583"
       id="path41"
       d="m 16.818885,298.43109 c 5.086357,-0.49881 4.847476,-0.52533 11.272538,-0.80855 11.4154,-0.5032 21.126096,-0.66928 32.821449,-0.85668 19.694419,-0.31557 33.242561,-0.3925 53.175718,-0.56411 40.02883,-0.20213 80.05725,-0.25957 120.07603,-1.25156 2.4366,-0.0707 4.87312,-0.1438 7.30978,-0.21206 7.35636,-0.2061 2.19207,-0.0552 7.72372,-0.19719 0.44871,-0.0115 1.34147,0.40925 1.346,-0.0396 0.51602,-51.13294 15.73273,-49.96795 -4.25797,-50.00239 -22.86261,-1.95976 -45.68026,-4.3718 -68.50934,-6.67897 -20.57044,-2.38124 -41.27755,-2.77221 -61.9265,-4.00599 C 95.608731,232.29456 75.481515,229.61111 55.383953,226.81814 45.264935,225.49727 35.1576,224.10666 25.067948,222.57975 16.993042,221.35896 8.8073086,221.36397 0.66142041,221.28549 -24.017596,221.21721 -16.057039,217.69735 -7.7512049,271.2499 c 0.3019351,1.94675 3.9400519,0.003 5.9100782,0.004 3.2686371,0.002 6.5372744,0.003 9.8059118,0.004 32.6814849,0.0109 65.3629739,0.0124 98.0444649,0.0142 24.97646,-0.009 49.94387,-0.74013 74.91251,-1.27341 9.49862,-0.12637 18.98503,-0.95745 28.48592,-0.89588 7.74306,0.42264 15.44593,1.37067 23.17392,2.00983 1.23535,0.0913 2.47069,0.18269 3.70604,0.27403 35.25966,2.59823 38.93411,-47.26647 3.67444,-49.8647 v 0 c -1.09168,-0.0801 -2.18336,-0.16027 -3.27505,-0.2404 -9.06177,-0.74327 -18.09204,-1.94732 -27.18852,-2.17858 -9.88897,0.0115 -19.76015,0.65607 -29.64454,0.9072 -24.61185,0.5258 -49.22248,1.24918 -73.84201,1.26201 -32.675343,-0.002 -65.350688,-0.003 -98.0260305,-0.0142 -3.2654203,-0.001 -6.5308405,-0.003 -9.7962605,-0.004 -1.9650122,-0.001 -5.5898113,-1.94479 -5.8950365,-0.004 -8.4441325,53.70276 -16.4855485,49.85555 7.89427798,50.03313 5.80028062,0.0537 11.63965052,-0.0416 17.40026052,0.73401 10.289075,1.55589 20.595241,2.98011 30.914282,4.3252 21.398016,2.97207 42.830506,5.81029 64.385307,7.38376 19.96083,1.17679 39.9756,1.56396 59.86125,3.84044 24.49344,2.47465 48.96895,5.20628 73.53044,6.9323 18.97463,-0.0419 3.43966,0.78186 2.77849,-49.97535 -0.005,-0.35363 -0.70696,0.0229 -1.06051,0.0319 -5.41412,0.13852 -0.92908,0.006 -7.97548,0.20386 -2.3663,0.0663 -4.73246,0.13759 -7.09869,0.20638 -39.74893,0.98747 -79.50762,1.03154 -119.26651,1.23803 -19.778158,0.17059 -34.164585,0.25433 -53.752734,0.57241 -14.775384,0.23994 -29.609169,0.39343 -44.352768,1.53969 -1.778455,0.13827 -3.548647,0.36768 -5.322971,0.55152 -35.046876,4.65956 -28.457268,54.22332 6.589608,49.56377 z" />
  </g>
</svg>
